<svg width="585" height="798" viewBox="0 0 585 798" xmlns="http://www.w3.org/2000/svg">
  <path d="M 373.36 13.45 L 327.54 34.42 L 302.80 58.39 L 286.76 86.99 L 264.86 154.49 L 258.96 153.83 L 252.90 133.74 L 242.78 130.26 L 212.09 156.47 L 169.12 264.14 L 130.06 339.75 L 64.02 436.03 L 10.76 495.78 L 15.50 511.11 L 33.48 508.92 L 98.77 434.60 L 168.58 326.72 L 227.45 190.12 L 231.97 189.75 L 234.22 199.46 L 236.40 382.63 L 227.08 410.40 L 212.31 441.15 L 177.73 458.78 L 118.18 524.33 L 53.10 614.18 L 17.22 719.20 L 15.78 765.96 L 26.35 785.85 L 50.04 786.40 L 75.86 773.71 L 123.40 734.40 L 161.13 691.95 L 195.37 630.15 L 216.13 577.80 L 236.84 508.75 L 242.27 446.17 L 262.06 392.87 L 307.71 363.57 L 393.80 269.65 L 427.26 222.04 L 443.98 229.08 L 490.50 230.96 L 494.99 293.08 L 490.09 379.59 L 476.03 457.81 L 451.98 533.16 L 427.69 581.32 L 383.57 630.37 L 381.45 639.28 L 394.99 650.26 L 416.57 634.94 L 444.26 604.11 L 471.67 556.66 L 495.58 488.27 L 511.83 417.32 L 521.03 255.82 L 515.82 221.79 L 505.93 206.50 L 453.64 202.29 L 450.50 197.27 L 514.94 101.94 L 565.72 49.86 L 573.40 24.69 L 566.00 16.06 L 553.51 17.62 L 492.44 87.97 L 425.00 181.38 L 429.73 98.48 L 426.01 26.54 L 408.88 11.19 Z M 211.53 470.84 L 213.19 490.18 L 199.97 540.94 L 153.14 654.89 L 104.07 716.72 L 67.15 747.73 L 43.42 759.53 L 41.46 737.40 L 49.30 697.50 L 82.17 616.92 L 164.13 511.25 L 194.74 479.19 Z M 390.27 36.37 L 402.47 41.49 L 402.10 120.98 L 394.02 185.22 L 402.58 206.78 L 382.21 241.41 L 334.09 297.60 L 282.47 350.62 L 262.93 359.64 L 262.15 203.31 L 281.90 188.59 L 310.05 101.21 L 325.06 72.38 L 349.76 51.97 Z" fill="none" stroke="#111" stroke-width="4" stroke-linecap="round" stroke-linejoin="round" />
</svg>
