<svg width="220" height="220" viewBox="0 0 220 220" xmlns="http://www.w3.org/2000/svg">
  <g stroke="#1b1b1b" stroke-opacity="0.08" stroke-width="1">
    <path d="M-10 30 L190 -10" />
    <path d="M-10 70 L190 30" />
    <path d="M-10 110 L190 70" />
    <path d="M-10 150 L190 110" />
    <path d="M-10 190 L190 150" />
    <path d="M30 230 L230 30" />
    <path d="M70 230 L230 70" />
    <path d="M110 230 L230 110" />
    <path d="M150 230 L230 150" />
    <path d="M190 230 L230 190" />
  </g>
  <g stroke="#1b1b1b" stroke-opacity="0.05" stroke-width="1">
    <path d="M230 30 L30 230" />
    <path d="M230 70 L70 230" />
    <path d="M230 110 L110 230" />
    <path d="M230 150 L150 230" />
    <path d="M230 190 L190 230" />
  </g>
</svg>
